# xmcd
# 
# Track frame offsets:
#     150
#     18202
#     31478
#     47816
#     62588
#     81835
#     101115
#     123048
#     141128
#     155899
#     173371
#     192383
#     213487
#     230813
#     247681
#     266186
#     285349
#     301918
#     318849
# 
# Disc length: 4451
# 
# Revision: 11
# Processed by: cddbd v1.5.2PL0 Copyright (c) Steve Scherf et al.
# Submitted via: fre:ac v1.0.17
# 
DISCID=02116113
DTITLE=Various Artist - Best of Black 01 CD 1
DYEAR=2001
DGENRE=Black
TTITLE0=Mary J. Blige - Family Affair
TTITLE1=City High - What Would You Do
TTITLE2=Destiny's Child - Independent Women - Part 1
TTITLE3=Wyclef Jean - Perfect Gentleman
TTITLE4=Wu-Tang Clan - Gravel Pit
TTITLE5=Xzibit - X
TTITLE6=Eminem - The Way I Am
TTITLE7=Lil'Kim feat. Phil Collins - In The Air Tonite
TTITLE8=R. Kelly - Fiesta
TTITLE9=Nivea - Don't Mess With The Radio
TTITLE10=Nelly - Ride Wit Me
TTITLE11=Eve - Who's That Girl
TTITLE12=Joe - Stutter
TTITLE13=Public Anouncement - Mamacita
TTITLE14=Sisqo - Dance For Me
TTITLE15=LL Cool J. feat. Kelly Price - You And Me
TTITLE16=Chante Moore - Straight Up
TTITLE17=Ginuwine - Just Because
TTITLE18=Samantha Mumba - Gotta Tell You
EXTD=
EXTT0=
EXTT1=
EXTT2=
EXTT3=
EXTT4=
EXTT5=
EXTT6=
EXTT7=
EXTT8=
EXTT9=
EXTT10=
EXTT11=
EXTT12=
EXTT13=
EXTT14=
EXTT15=
EXTT16=
EXTT17=
EXTT18=
PLAYORDER=
